<svg xmlns="http://www.w3.org/2000/svg" width="1471" height="389" viewBox="0 0 1441 381" shape-rendering="geometricPrecision" text-rendering="geometricPrecision" image-rendering="optimizeQuality" fill-rule="evenodd" clip-rule="evenodd"><defs><style>.fil1,.fil2{fill-rule:nonzero}.fil2{fill:#23478f}.fil1{fill:#fe0000}</style></defs><g id="Слой_x0020_1"><g id="_2529175427120"><rect x="8" y="8" width="1425" height="365" rx="28" ry="25" fill="#fefefe" stroke="#fe0000" stroke-width="16.331"/><path class="fil1" d="M59 77h41v52H90V86H69v43H59z"/><path id="1" class="fil1" d="M159 129h-12l-4-12h-21l-5 12h-11l20-52h12l21 52zm-20-21l-7-19-7 19h14z"/><path id="2" class="fil1" d="M196 110l11 3c-2 6-5 10-8 13-4 3-9 4-14 4-7 0-13-2-18-7-4-5-6-11-6-20 0-8 2-15 6-20 5-5 11-7 18-7s12 2 16 5c2 3 4 6 5 10l-10 3c-1-3-2-5-4-7-2-1-4-2-7-2-4 0-7 1-10 4-2 3-3 7-3 14 0 6 1 11 3 14 3 3 6 4 10 4 2 0 5-1 7-3 2-1 3-4 4-8z"/><path id="3" class="fil1" d="M261 129h-11l-5-12h-21l-4 12h-12l21-52h11l21 52zm-19-21l-8-19-7 19h15z"/><path id="4" class="fil1" d="M300 77v22c2 0 3-1 4-2s2-4 4-8c2-5 4-9 6-10 2-2 6-3 11-3h2v8h-2c-2 0-4 0-5 1-1 0-2 1-2 2-1 1-2 4-3 7-1 2-1 4-2 5s-2 2-4 3c2 1 4 2 6 4 1 2 3 5 5 9l7 14h-12l-7-13v-1c-1-1-1-2-2-3-1-2-2-4-3-5-1 0-2-1-3-1v23h-10v-23c-2 0-3 1-4 1-1 1-2 3-3 5s-1 2-1 3c0 0-1 0-1 1l-6 13h-13l8-14c1-4 3-7 5-9 1-2 3-3 5-4-1-1-3-2-4-3 0-1-1-3-2-5-1-3-2-5-2-7-1-1-2-2-3-2-1-1-2-1-5-1h-1v-8h1c6 0 9 1 11 3 3 1 5 5 7 10 1 4 3 7 4 8 0 1 2 2 4 2V77h10z"/><path id="5" class="fil1" d="M333 77h10v35l22-35h10v52h-10V95l-21 34h-11z"/><path id="6" class="fil1" d="M386 129V77h30c3 1 5 3 7 6 2 2 3 6 3 10 0 3 0 6-1 8-2 2-3 4-5 5s-3 2-5 3h-18v20h-11zm11-43v15h6c4 0 7-1 8-1l3-3c1-1 1-2 1-4s0-4-1-5-3-2-4-2h-13z"/><path id="7" class="fil1" d="M467 110l10 3c-1 6-4 10-8 13-3 3-8 4-14 4-7 0-12-2-17-7-4-5-7-11-7-20 0-8 3-15 7-20 5-5 11-7 18-7s12 2 16 5c2 3 4 6 5 10l-10 3c-1-3-2-5-4-7-2-1-5-2-7-2-4 0-8 1-10 4s-4 7-4 14c0 6 2 11 4 14s5 4 9 4c3 0 6-1 8-3 2-1 3-4 4-8z"/><path id="8" class="fil1" d="M487 77h10v21h14c7 0 12 1 15 4 3 4 5 7 5 12 0 3-1 6-3 9-2 2-4 4-6 5-3 1-6 1-11 1h-24V77zm10 43h18c1 0 2-1 3-2s2-3 2-4c0-3-1-5-3-6s-5-1-9-1h-11v13z"/><path id="9" class="fil1" d="M539 77h11v22c2 0 4-1 5-2s2-3 4-8c2-6 4-9 6-11 3-1 6-2 11-2h2v8h-2c-2 0-4 0-5 1-1 0-2 1-2 2-1 1-2 4-3 7-1 2-1 4-2 5s-2 2-4 3c2 1 4 2 6 4 1 2 3 5 5 9l7 14h-12l-7-13v-1c0-1-1-1-2-3s-2-4-3-5c-1 0-2-1-4-1v23h-11V77z"/><path id="10" class="fil1" d="M584 129V77h10v52z"/><path id="11" class="fil2" d="M625 77h42v52h-11V86h-20v43h-11z"/><path id="12" class="fil2" d="M678 129V77h39v9h-29v11h27v9h-27v14h30v9z"/><path id="13" class="fil2" d="M727 129V77h29c3 1 6 3 8 6 2 2 3 6 3 10 0 3-1 6-2 8s-2 4-4 5l-6 3h-18v20h-10zm10-43v15h6c4 0 7-1 9-1l3-3c1-1 1-2 1-4s0-4-2-5c-1-1-2-2-4-2h-13z"/><path id="14" class="fil2" d="M776 129V77h39v9h-29v11h27v9h-27v14h30v9z"/><path id="15" class="fil2" d="M825 77h30c2 1 4 1 6 2 1 1 3 3 4 5s1 4 1 6 0 5-2 7c-1 2-3 3-5 4 3 1 6 3 7 5 2 2 3 5 3 8 0 2-1 5-2 7s-2 4-4 5c-2 2-5 3-7 3h-31V77zm10 8v13h7c5 0 7-1 8-1 2 0 3 0 4-2 1-1 2-2 2-4 0-1 0-3-1-4s-3-1-4-1c-1-1-4-1-9-1h-7zm0 21v14h18c1 0 2-1 3-2s2-3 2-5c0-1 0-2-1-4-1-1-2-1-4-2-1 0-4-1-9-1h-9z"/><path id="16" class="fil2" d="M878 129V77h39v9h-28v11h26v9h-26v14h29v9z"/><path id="17" class="fil2" d="M934 91l-10-2c2-9 9-13 19-13 6 0 11 1 14 4 3 2 5 6 5 9s-1 5-2 7c-2 2-4 4-7 6 4 1 6 2 8 5 2 2 3 4 3 8s-2 8-5 11c-4 3-9 4-16 4-5 0-10-1-13-3-3-1-5-5-7-10l10-3c1 3 2 5 4 6 1 1 4 2 6 2 3 0 6-1 7-3 2-1 3-3 3-5s-1-4-3-5-4-2-8-2h-2v-8h1c3 0 6-1 7-2 2-1 3-3 3-6 0-2-1-3-2-5-1-1-3-2-6-2-5 0-7 3-9 7z"/><path id="18" class="fil2" d="M973 129V77h39v9h-28v11h26v9h-26v14h29v9z"/><path id="19" class="fil2" d="M1022 129V77h11v20h20V77h11v52h-11v-23h-20v23z"/><path id="20" class="fil2" d="M1075 129V77h11v20h20V77h11v52h-11v-23h-20v23z"/><path id="21" class="fil2" d="M1160 129v-22h-3c-3 0-5 1-7 2-1 1-3 4-7 9l-7 11h-13l6-10c3-4 5-7 6-9 2-1 4-3 6-4-5-1-8-2-11-5-2-3-3-6-3-10 0-3 1-6 3-8 1-3 3-4 6-5s7-1 12-1h22v52h-10zm0-43h-17c-1 0-2 1-3 2s-2 2-2 4 1 3 2 4c0 2 2 2 3 3h17V86z"/><path d="M103 284H64l-5 11c-2 3-3 6-3 9s2 6 4 7 5 2 11 2v3H34v-3c4-1 7-2 10-5 2-3 6-9 9-17l41-91h2l41 93c3 9 7 15 9 17s5 3 8 3v3H99v-3h3c4 0 7-1 9-2 1-1 2-2 2-4 0-1 0-2-1-3 0 0-1-2-2-6l-7-14zm-2-7l-17-38-18 38h35zm131-21c11 2 19 5 23 9 6 5 10 11 10 20 0 8-4 15-11 21-8 7-20 10-37 10h-57v-3c5 0 9 0 10-1 2-1 4-3 4-4 1-2 1-6 1-12v-74c0-6 0-10-1-11 0-2-2-3-4-4s-5-2-10-2v-3h54c13 0 22 1 28 4 5 2 10 6 13 10 3 5 4 10 4 15s-2 10-6 14c-4 5-11 8-21 11zm-30-3c8 0 14 0 17-2 4-2 7-5 9-8s3-7 3-12-1-9-3-13c-2-3-5-5-8-7-4-2-10-2-18-2v44zm0 7v41c0 3 0 5 2 6 2 2 4 3 7 3 4 0 8-1 12-3s6-5 8-9 3-8 3-12c0-6-1-11-3-15s-5-7-10-9c-4-1-11-2-19-2zm174-58v31h-2c-2-7-4-12-6-15-3-3-6-6-9-8-2-1-6-1-12-1h-8v88c0 5 0 9 1 11 0 1 2 2 4 3 1 2 4 2 7 2h4v3h-59v-3h3c4 0 6-1 8-2 2 0 3-2 4-4 0-1 1-5 1-10v-88h-9c-7 0-13 1-16 5-5 4-8 11-9 19h-4v-31h102zm71-1c18-1 32 5 44 16 11 11 17 25 17 42 0 14-5 27-13 38-11 14-27 22-47 22-21 0-37-7-48-21-9-11-13-24-13-39 0-17 6-31 17-42 12-11 26-17 43-16zm1 5c-11 0-19 6-24 16-5 9-7 21-7 38 0 19 4 33 10 43 5 6 12 9 20 9 6 0 11-1 15-4 5-4 9-9 11-17 3-8 4-18 4-31 0-15-1-26-4-33-3-8-6-13-10-16-5-3-10-5-15-5zm119 79h-49v-17h49v17z" fill="#23478f" fill-rule="nonzero"/><path class="fil1" d="M618 209v46h2c7 0 12-2 15-7 4-4 6-11 7-20h3v60h-3c-1-7-2-12-5-16-2-4-4-7-7-8-3-2-7-3-12-3v44l3 3c2 1 4 2 7 2h7c11 0 19-3 26-8 6-5 11-12 13-22h4l-6 36h-98v-3h4c3 0 6-1 8-2 1 0 3-2 3-4 1-1 1-5 1-10v-85c-1-2-2-3-3-4-2-2-5-3-9-3h-4v-3h95v34h-3c-2-8-4-14-7-18-3-3-7-6-12-8-3-1-9-1-18-1h-11zm71-7h59v3h-2c-6 0-9 1-11 3s-3 6-3 12v34c8 0 13 0 15-1 2 0 5-2 7-4 2-3 4-8 6-15 2-8 4-15 6-19s5-8 8-10c4-3 8-4 14-4 5 0 9 2 13 5 3 3 4 6 4 11 0 3-1 6-3 8s-5 3-8 3c-6 0-10-3-10-11 0-4-2-5-4-5-3 0-5 1-6 4-2 3-4 8-6 15s-4 13-5 16c-2 4-4 7-7 9 4 1 7 2 9 4 2 1 3 3 5 6 1 2 5 8 10 17l11 21c2 3 4 5 7 7 2 1 5 2 9 2v3h-38l-24-44c-2-5-4-8-6-9-1-1-3-1-7-1v38c0 6 1 9 3 11 3 1 7 2 13 2v3h-59v-3c6 0 11-1 13-3s3-6 3-12v-76c0-6-1-11-3-13-1-3-5-4-11-4h-2v-3zm231-2v39h-4c-2-10-7-18-13-24-7-5-14-8-23-8-7 0-13 2-19 6s-11 10-13 16c-4 9-6 18-6 28 0 11 2 20 4 28 3 9 7 15 12 19 6 5 13 7 21 7s14-2 20-5 12-9 19-16v10c-7 6-13 11-20 14s-15 5-24 5c-12 0-23-3-32-8-10-5-17-12-22-21s-8-18-8-29 3-21 9-31c5-9 13-17 23-22 9-6 19-8 30-8 8 0 17 1 25 5 6 2 9 3 10 3 2 0 4-1 5-2s2-3 2-6h4zm80 116v-3h4c5 0 9-1 10-3 1-3 2-7 2-13v-87h-40v87c0 7 1 12 2 13 2 2 6 3 10 3h4v3h-59v-3h3c5 0 9-1 10-3 2-2 3-6 3-13v-75c0-7-1-12-3-14-1-2-5-3-10-3h-3v-3h126v3h-3c-5 0-9 1-10 3-2 3-3 7-3 14v75c0 7 1 12 3 13 2 2 5 3 11 3h2v3h-59zm109-51v31c0 6 0 10 1 12 1 1 2 3 4 4s5 1 11 1v3h-58v-3c5 0 9 0 11-1 1-1 3-3 3-4 1-2 2-6 2-12v-74c0-6-1-10-2-11 0-2-2-3-3-4-2-1-6-2-11-2v-3h49c17 0 28 3 36 9 7 6 10 13 10 22 0 7-2 14-7 19-4 5-11 9-19 11-5 1-14 2-27 2zm0-56v49h4c7 0 12-2 16-6s5-10 5-19c0-8-1-14-5-18s-9-6-17-6h-3zm105 0v46h2c7 0 13-2 16-7 3-4 5-11 6-20h3v60h-3c-1-7-2-12-4-16s-5-7-8-8c-2-2-7-3-12-3v32c0 7 0 10 1 12 0 1 1 2 3 3 1 1 4 2 7 2h7c10 0 19-3 25-8s11-12 14-22h3l-5 36h-98v-3h3c4 0 6-1 8-2 2 0 3-2 4-4 0-1 1-5 1-10v-75c0-5 0-9-1-10 0-2-1-3-3-4-2-2-5-3-9-3h-3v-3h95v34h-4c-1-8-3-14-6-18-3-3-7-6-13-8-3-1-9-1-17-1h-12zm182-9v39h-3c-3-10-7-18-14-24-7-5-14-8-23-8-7 0-13 2-19 6s-10 10-13 16c-4 9-5 18-5 28 0 11 1 20 4 28 2 9 6 15 12 19 5 5 12 7 21 7 7 0 13-2 19-5s13-9 19-16v10c-6 6-13 11-20 14s-15 5-24 5c-12 0-23-3-32-8s-17-12-22-21-7-18-7-29 2-21 8-31c6-9 13-17 23-22 10-6 20-8 31-8 8 0 16 1 25 5 5 2 8 3 10 3 1 0 3-1 4-2 2-1 2-3 3-6h3z"/></g></g></svg>