<?xml version="1.0" encoding="UTF-8"?>
<!DOCTYPE svg PUBLIC "-//W3C//DTD SVG 1.1//EN" "http://www.w3.org/Graphics/SVG/1.1/DTD/svg11.dtd">
<!-- Creator: CorelDRAW X7 -->
<svg xmlns="http://www.w3.org/2000/svg" xml:space="preserve" width="1471px" height="389px" version="1.1" style="shape-rendering:geometricPrecision; text-rendering:geometricPrecision; image-rendering:optimizeQuality; fill-rule:evenodd; clip-rule:evenodd"
viewBox="0 0 1441 381"
 xmlns:xlink="http://www.w3.org/1999/xlink">
 <defs>
  <style type="text/css">
   <![CDATA[
    .str0 {stroke:#FE0000;stroke-width:16.3314}
    .fil0 {fill:#FEFEFE}
    .fil2 {fill:#23478F;fill-rule:nonzero}
    .fil3 {fill:#23478F;fill-rule:nonzero}
    .fil1 {fill:#FE0000;fill-rule:nonzero}
   ]]>
  </style>
 </defs>
 <g id="Слой_x0020_1">
  <metadata id="CorelCorpID_0Corel-Layer"/>
  <g id="_2529175427120">
   <rect class="fil0 str0" x="8" y="8" width="1425" height="365" rx="28" ry="25"/>
   <polygon class="fil1" points="59,77 100,77 100,129 90,129 90,86 69,86 69,129 59,129 "/>
   <path id="1" class="fil1" d="M159 129l-12 0 -4 -12 -21 0 -5 12 -11 0 20 -52 12 0 21 52zm-20 -21l-7 -19 -7 19 14 0z"/>
   <path id="2" class="fil1" d="M196 110l11 3c-2,6 -5,10 -8,13 -4,3 -9,4 -14,4 -7,0 -13,-2 -18,-7 -4,-5 -6,-11 -6,-20 0,-8 2,-15 6,-20 5,-5 11,-7 18,-7 7,0 12,2 16,5 2,3 4,6 5,10l-10 3c-1,-3 -2,-5 -4,-7 -2,-1 -4,-2 -7,-2 -4,0 -7,1 -10,4 -2,3 -3,7 -3,14 0,6 1,11 3,14 3,3 6,4 10,4 2,0 5,-1 7,-3 2,-1 3,-4 4,-8z"/>
   <path id="3" class="fil1" d="M261 129l-11 0 -5 -12 -21 0 -4 12 -12 0 21 -52 11 0 21 52zm-19 -21l-8 -19 -7 19 15 0z"/>
   <path id="4" class="fil1" d="M300 77l0 22c2,0 3,-1 4,-2 1,-1 2,-4 4,-8 2,-5 4,-9 6,-10 2,-2 6,-3 11,-3 0,0 1,0 2,0l0 8 -2 0c-2,0 -4,0 -5,1 -1,0 -2,1 -2,2 -1,1 -2,4 -3,7 -1,2 -1,4 -2,5 -1,1 -2,2 -4,3 2,1 4,2 6,4 1,2 3,5 5,9l7 14 -12 0 -7 -13c0,0 0,-1 0,-1 -1,-1 -1,-2 -2,-3 -1,-2 -2,-4 -3,-5 -1,0 -2,-1 -3,-1l0 23 -10 0 0 -23c-2,0 -3,1 -4,1 -1,1 -2,3 -3,5 -1,2 -1,2 -1,3 0,0 -1,0 -1,1l-6 13 -13 0 8 -14c1,-4 3,-7 5,-9 1,-2 3,-3 5,-4 -1,-1 -3,-2 -4,-3 0,-1 -1,-3 -2,-5 -1,-3 -2,-5 -2,-7 -1,-1 -2,-2 -3,-2 -1,-1 -2,-1 -5,-1 0,0 -1,0 -1,0l0 -8c1,0 1,0 1,0 6,0 9,1 11,3 3,1 5,5 7,10 1,4 3,7 4,8 0,1 2,2 4,2l0 -22 10 0z"/>
   <polygon id="5" class="fil1" points="333,77 343,77 343,112 365,77 375,77 375,129 365,129 365,95 344,129 333,129 "/>
   <path id="6" class="fil1" d="M386 129l0 -52 17 0c7,0 11,0 13,0 3,1 5,3 7,6 2,2 3,6 3,10 0,3 0,6 -1,8 -2,2 -3,4 -5,5 -2,1 -3,2 -5,3 -3,0 -6,0 -11,0l-7 0 0 20 -11 0zm11 -43l0 15 6 0c4,0 7,-1 8,-1 1,-1 2,-2 3,-3 1,-1 1,-2 1,-4 0,-2 0,-4 -1,-5 -1,-1 -3,-2 -4,-2 -2,0 -4,0 -8,0l-5 0z"/>
   <path id="7" class="fil1" d="M467 110l10 3c-1,6 -4,10 -8,13 -3,3 -8,4 -14,4 -7,0 -12,-2 -17,-7 -4,-5 -7,-11 -7,-20 0,-8 3,-15 7,-20 5,-5 11,-7 18,-7 7,0 12,2 16,5 2,3 4,6 5,10l-10 3c-1,-3 -2,-5 -4,-7 -2,-1 -5,-2 -7,-2 -4,0 -8,1 -10,4 -2,3 -4,7 -4,14 0,6 2,11 4,14 2,3 5,4 9,4 3,0 6,-1 8,-3 2,-1 3,-4 4,-8z"/>
   <path id="8" class="fil1" d="M487 77l10 0 0 21 14 0c7,0 12,1 15,4 3,4 5,7 5,12 0,3 -1,6 -3,9 -2,2 -4,4 -6,5 -3,1 -6,1 -11,1l-24 0 0 -52zm10 43l11 0c3,0 5,0 7,0 1,0 2,-1 3,-2 1,-1 2,-3 2,-4 0,-3 -1,-5 -3,-6 -2,-1 -5,-1 -9,-1l-11 0 0 13z"/>
   <path id="9" class="fil1" d="M539 77l11 0 0 22c2,0 4,-1 5,-2 1,-1 2,-3 4,-8 2,-6 4,-9 6,-11 3,-1 6,-2 11,-2 0,0 1,0 2,0l0 8 -2 0c-2,0 -4,0 -5,1 -1,0 -2,1 -2,2 -1,1 -2,4 -3,7 -1,2 -1,4 -2,5 -1,1 -2,2 -4,3 2,1 4,2 6,4 1,2 3,5 5,9l7 14 -12 0 -7 -13c0,0 0,-1 0,-1 0,-1 -1,-1 -2,-3 -1,-2 -2,-4 -3,-5 -1,0 -2,-1 -4,-1l0 23 -11 0 0 -52z"/>
   <polygon id="10" class="fil1" points="584,129 584,77 594,77 594,129 "/>
   <polygon id="11" class="fil2" points="625,77 667,77 667,129 656,129 656,86 636,86 636,129 625,129 "/>
   <polygon id="12" class="fil2" points="678,129 678,77 717,77 717,86 688,86 688,97 715,97 715,106 688,106 688,120 718,120 718,129 "/>
   <path id="13" class="fil2" d="M727 129l0 -52 17 0c6,0 10,0 12,0 3,1 6,3 8,6 2,2 3,6 3,10 0,3 -1,6 -2,8 -1,2 -2,4 -4,5 -2,1 -4,2 -6,3 -2,0 -6,0 -11,0l-7 0 0 20 -10 0zm10 -43l0 15 6 0c4,0 7,-1 9,-1 1,-1 2,-2 3,-3 1,-1 1,-2 1,-4 0,-2 0,-4 -2,-5 -1,-1 -2,-2 -4,-2 -1,0 -4,0 -7,0l-6 0z"/>
   <polygon id="14" class="fil2" points="776,129 776,77 815,77 815,86 786,86 786,97 813,97 813,106 786,106 786,120 816,120 816,129 "/>
   <path id="15" class="fil2" d="M825 77l21 0c4,0 7,0 9,0 2,1 4,1 6,2 1,1 3,3 4,5 1,2 1,4 1,6 0,2 0,5 -2,7 -1,2 -3,3 -5,4 3,1 6,3 7,5 2,2 3,5 3,8 0,2 -1,5 -2,7 -1,2 -2,4 -4,5 -2,2 -5,3 -7,3 -2,0 -6,0 -13,0l-18 0 0 -52zm10 8l0 13 7 0c5,0 7,-1 8,-1 2,0 3,0 4,-2 1,-1 2,-2 2,-4 0,-1 0,-3 -1,-4 -1,-1 -3,-1 -4,-1 -1,-1 -4,-1 -9,-1l-7 0zm0 21l0 14 10 0c4,0 7,0 8,0 1,0 2,-1 3,-2 1,-1 2,-3 2,-5 0,-1 0,-2 -1,-4 -1,-1 -2,-1 -4,-2 -1,0 -4,-1 -9,-1l-9 0z"/>
   <polygon id="16" class="fil2" points="878,129 878,77 917,77 917,86 889,86 889,97 915,97 915,106 889,106 889,120 918,120 918,129 "/>
   <path id="17" class="fil2" d="M934 91l-10 -2c2,-9 9,-13 19,-13 6,0 11,1 14,4 3,2 5,6 5,9 0,3 -1,5 -2,7 -2,2 -4,4 -7,6 4,1 6,2 8,5 2,2 3,4 3,8 0,4 -2,8 -5,11 -4,3 -9,4 -16,4 -5,0 -10,-1 -13,-3 -3,-1 -5,-5 -7,-10l10 -3c1,3 2,5 4,6 1,1 4,2 6,2 3,0 6,-1 7,-3 2,-1 3,-3 3,-5 0,-2 -1,-4 -3,-5 -2,-1 -4,-2 -8,-2l-2 0 0 -8 1 0c3,0 6,-1 7,-2 2,-1 3,-3 3,-6 0,-2 -1,-3 -2,-5 -1,-1 -3,-2 -6,-2 -5,0 -7,3 -9,7z"/>
   <polygon id="18" class="fil2" points="973,129 973,77 1012,77 1012,86 984,86 984,97 1010,97 1010,106 984,106 984,120 1013,120 1013,129 "/>
   <polygon id="19" class="fil2" points="1022,129 1022,77 1033,77 1033,97 1053,97 1053,77 1064,77 1064,129 1053,129 1053,106 1033,106 1033,129 "/>
   <polygon id="20" class="fil2" points="1075,129 1075,77 1086,77 1086,97 1106,97 1106,77 1117,77 1117,129 1106,129 1106,106 1086,106 1086,129 "/>
   <path id="21" class="fil2" d="M1160 129l0 -22 -3 0c-3,0 -5,1 -7,2 -1,1 -3,4 -7,9l-7 11 -13 0 6 -10c3,-4 5,-7 6,-9 2,-1 4,-3 6,-4 -5,-1 -8,-2 -11,-5 -2,-3 -3,-6 -3,-10 0,-3 1,-6 3,-8 1,-3 3,-4 6,-5 3,-1 7,-1 12,-1l22 0 0 52 -10 0zm0 -43l-9 0c-4,0 -7,0 -8,0 -1,0 -2,1 -3,2 -1,1 -2,2 -2,4 0,2 1,3 2,4 0,2 2,2 3,3 1,0 4,0 9,0l8 0 0 -13z"/>
   <path class="fil3" d="M103 284l-39 0 -5 11c-2,3 -3,6 -3,9 0,3 2,6 4,7 2,1 5,2 11,2l0 3 -37 0 0 -3c4,-1 7,-2 10,-5 2,-3 6,-9 9,-17l41 -91 2 0 41 93c3,9 7,15 9,17 2,2 5,3 8,3l0 3 -55 0 0 -3 3 0c4,0 7,-1 9,-2 1,-1 2,-2 2,-4 0,-1 0,-2 -1,-3 0,0 -1,-2 -2,-6l-7 -14zm-2 -7l-17 -38 -18 38 35 0zm131 -21c11,2 19,5 23,9 6,5 10,11 10,20 0,8 -4,15 -11,21 -8,7 -20,10 -37,10l-57 0 0 -3c5,0 9,0 10,-1 2,-1 4,-3 4,-4 1,-2 1,-6 1,-12l0 -74c0,-6 0,-10 -1,-11 0,-2 -2,-3 -4,-4 -2,-1 -5,-2 -10,-2l0 -3 54 0c13,0 22,1 28,4 5,2 10,6 13,10 3,5 4,10 4,15 0,5 -2,10 -6,14 -4,5 -11,8 -21,11zm-30 -3c8,0 14,0 17,-2 4,-2 7,-5 9,-8 2,-3 3,-7 3,-12 0,-5 -1,-9 -3,-13 -2,-3 -5,-5 -8,-7 -4,-2 -10,-2 -18,-2l0 44zm0 7l0 36 0 5c0,3 0,5 2,6 2,2 4,3 7,3 4,0 8,-1 12,-3 4,-2 6,-5 8,-9 2,-4 3,-8 3,-12 0,-6 -1,-11 -3,-15 -2,-4 -5,-7 -10,-9 -4,-1 -11,-2 -19,-2zm174 -58l0 31 -2 0c-2,-7 -4,-12 -6,-15 -3,-3 -6,-6 -9,-8 -2,-1 -6,-1 -12,-1l-8 0 0 88c0,5 0,9 1,11 0,1 2,2 4,3 1,2 4,2 7,2l4 0 0 3 -59 0 0 -3 3 0c4,0 6,-1 8,-2 2,0 3,-2 4,-4 0,-1 1,-5 1,-10l0 -88 -9 0c-7,0 -13,1 -16,5 -5,4 -8,11 -9,19l-4 0 0 -31 102 0zm71 -1c18,-1 32,5 44,16 11,11 17,25 17,42 0,14 -5,27 -13,38 -11,14 -27,22 -47,22 -21,0 -37,-7 -48,-21 -9,-11 -13,-24 -13,-39 0,-17 6,-31 17,-42 12,-11 26,-17 43,-16zm1 5c-11,0 -19,6 -24,16 -5,9 -7,21 -7,38 0,19 4,33 10,43 5,6 12,9 20,9 6,0 11,-1 15,-4 5,-4 9,-9 11,-17 3,-8 4,-18 4,-31 0,-15 -1,-26 -4,-33 -3,-8 -6,-13 -10,-16 -5,-3 -10,-5 -15,-5zm119 79l-49 0 0 -17 49 0 0 17z"/>
   <path class="fil1" d="M618 209l0 46 2 0c7,0 12,-2 15,-7 4,-4 6,-11 7,-20l3 0 0 60 -3 0c-1,-7 -2,-12 -5,-16 -2,-4 -4,-7 -7,-8 -3,-2 -7,-3 -12,-3l0 32c0,7 0,10 0,12 1,1 2,2 3,3 2,1 4,2 7,2l7 0c11,0 19,-3 26,-8 6,-5 11,-12 13,-22l4 0 -6 36 -98 0 0 -3 4 0c3,0 6,-1 8,-2 1,0 3,-2 3,-4 1,-1 1,-5 1,-10l0 -75c0,-5 0,-9 0,-10 -1,-2 -2,-3 -3,-4 -2,-2 -5,-3 -9,-3l-4 0 0 -3 95 0 0 34 -3 0c-2,-8 -4,-14 -7,-18 -3,-3 -7,-6 -12,-8 -3,-1 -9,-1 -18,-1l-11 0zm71 -7l59 0 0 3 -2 0c-6,0 -9,1 -11,3 -2,2 -3,6 -3,12l0 34c8,0 13,0 15,-1 2,0 5,-2 7,-4 2,-3 4,-8 6,-15 2,-8 4,-15 6,-19 2,-4 5,-8 8,-10 4,-3 8,-4 14,-4 5,0 9,2 13,5 3,3 4,6 4,11 0,3 -1,6 -3,8 -2,2 -5,3 -8,3 -6,0 -10,-3 -10,-11 0,-4 -2,-5 -4,-5 -3,0 -5,1 -6,4 -2,3 -4,8 -6,15 -2,7 -4,13 -5,16 -2,4 -4,7 -7,9 4,1 7,2 9,4 2,1 3,3 5,6 1,2 5,8 10,17l11 21c2,3 4,5 7,7 2,1 5,2 9,2l0 3 -38 0 -24 -44c-2,-5 -4,-8 -6,-9 -1,-1 -3,-1 -7,-1l0 38c0,6 1,9 3,11 3,1 7,2 13,2l0 3 -59 0 0 -3c6,0 11,-1 13,-3 2,-2 3,-6 3,-12l0 -76c0,-6 -1,-11 -3,-13 -1,-3 -5,-4 -11,-4l-2 0 0 -3zm231 -2l0 39 -4 0c-2,-10 -7,-18 -13,-24 -7,-5 -14,-8 -23,-8 -7,0 -13,2 -19,6 -6,4 -11,10 -13,16 -4,9 -6,18 -6,28 0,11 2,20 4,28 3,9 7,15 12,19 6,5 13,7 21,7 8,0 14,-2 20,-5 6,-3 12,-9 19,-16l0 10c-7,6 -13,11 -20,14 -7,3 -15,5 -24,5 -12,0 -23,-3 -32,-8 -10,-5 -17,-12 -22,-21 -5,-9 -8,-18 -8,-29 0,-11 3,-21 9,-31 5,-9 13,-17 23,-22 9,-6 19,-8 30,-8 8,0 17,1 25,5 6,2 9,3 10,3 2,0 4,-1 5,-2 1,-1 2,-3 2,-6l4 0zm80 116l0 -3 4 0c5,0 9,-1 10,-3 1,-3 2,-7 2,-13l0 -87 -40 0 0 87c0,7 1,12 2,13 2,2 6,3 10,3l4 0 0 3 -59 0 0 -3 3 0c5,0 9,-1 10,-3 2,-2 3,-6 3,-13l0 -75c0,-7 -1,-12 -3,-14 -1,-2 -5,-3 -10,-3l-3 0 0 -3 126 0 0 3 -3 0c-5,0 -9,1 -10,3 -2,3 -3,7 -3,14l0 75c0,7 1,12 3,13 2,2 5,3 11,3l2 0 0 3 -59 0zm109 -51l0 31c0,6 0,10 1,12 1,1 2,3 4,4 2,1 5,1 11,1l0 3 -58 0 0 -3c5,0 9,0 11,-1 1,-1 3,-3 3,-4 1,-2 2,-6 2,-12l0 -74c0,-6 -1,-10 -2,-11 0,-2 -2,-3 -3,-4 -2,-1 -6,-2 -11,-2l0 -3 49 0c17,0 28,3 36,9 7,6 10,13 10,22 0,7 -2,14 -7,19 -4,5 -11,9 -19,11 -5,1 -14,2 -27,2zm0 -56l0 49c2,0 3,0 4,0 7,0 12,-2 16,-6 4,-4 5,-10 5,-19 0,-8 -1,-14 -5,-18 -4,-4 -9,-6 -17,-6l-3 0zm105 0l0 46 2 0c7,0 13,-2 16,-7 3,-4 5,-11 6,-20l3 0 0 60 -3 0c-1,-7 -2,-12 -4,-16 -2,-4 -5,-7 -8,-8 -2,-2 -7,-3 -12,-3l0 32c0,7 0,10 1,12 0,1 1,2 3,3 1,1 4,2 7,2l7 0c10,0 19,-3 25,-8 6,-5 11,-12 14,-22l3 0 -5 36 -98 0 0 -3 3 0c4,0 6,-1 8,-2 2,0 3,-2 4,-4 0,-1 1,-5 1,-10l0 -75c0,-5 0,-9 -1,-10 0,-2 -1,-3 -3,-4 -2,-2 -5,-3 -9,-3l-3 0 0 -3 95 0 0 34 -4 0c-1,-8 -3,-14 -6,-18 -3,-3 -7,-6 -13,-8 -3,-1 -9,-1 -17,-1l-12 0zm182 -9l0 39 -3 0c-3,-10 -7,-18 -14,-24 -7,-5 -14,-8 -23,-8 -7,0 -13,2 -19,6 -6,4 -10,10 -13,16 -4,9 -5,18 -5,28 0,11 1,20 4,28 2,9 6,15 12,19 5,5 12,7 21,7 7,0 13,-2 19,-5 6,-3 13,-9 19,-16l0 10c-6,6 -13,11 -20,14 -7,3 -15,5 -24,5 -12,0 -23,-3 -32,-8 -9,-5 -17,-12 -22,-21 -5,-9 -7,-18 -7,-29 0,-11 2,-21 8,-31 6,-9 13,-17 23,-22 10,-6 20,-8 31,-8 8,0 16,1 25,5 5,2 8,3 10,3 1,0 3,-1 4,-2 2,-1 2,-3 3,-6l3 0z"/>
  </g>
 </g>
</svg>
